<?xml version="1.0" encoding="UTF-8"?>
<svg id="Calque_2" data-name="Calque 2" xmlns="http://www.w3.org/2000/svg" viewBox="0 0 95.02 122.97">
  <defs>
    <style>
      .cls-1 {
        fill: #6bc942;
      }

      .cls-1, .cls-2, .cls-3, .cls-4, .cls-5, .cls-6, .cls-7, .cls-8, .cls-9, .cls-10, .cls-11, .cls-12, .cls-13, .cls-14 {
        stroke-width: 0px;
      }

      .cls-2 {
        fill: #36af99;
      }

      .cls-3 {
        fill: #4bc7e9;
      }

      .cls-4 {
        fill: #1f99d2;
      }

      .cls-5 {
        fill: #40bd8f;
      }

      .cls-6 {
        fill: #5ac7e6;
      }

      .cls-7 {
        fill: #1080d3;
      }

      .cls-8 {
        fill: #41ab4f;
      }

      .cls-9 {
        fill: #1972c8;
      }

      .cls-10 {
        fill: #63cf6e;
      }

      .cls-11 {
        fill: #0769cf;
      }

      .cls-12 {
        fill: #5bca7f;
      }

      .cls-13 {
        fill: #3cbdf3;
      }

      .cls-14 {
        fill: #79d044;
      }
    </style>
  </defs>
  <g id="OBJECTS">
    <g>
      <path class="cls-7" d="m66.41,64.74c0,3.03,0,5.77,0,8.51,0,6.91.05,13.83,0,20.74-.03,4.53-3.47,7.5-7.65,6.75-2.85-.51-4.97-2.65-5.04-5.55-.15-6.81-.12-13.63-.18-20.45,0-.54.18-.89.66-1.17,4.31-2.42,8.26-5.35,12.19-8.84Z"/>
      <path class="cls-8" d="m34.55,57.15c.17-.08.35-.16.52-.24.06.41.17.74.67.79,1.88.21,3.57.92,4.71,2.43.87,1.16,2.51,1.38,3.1,2.78-7.85,4.98-16.17,8.88-25.31,10.9-4.55,1.01-9.15,1.51-13.81,1.05-.36-.04-.77.06-1.19-.3,2.33-3.14,5.17-5.66,8.58-7.58,5.33-2.99,11.15-4.83,16.72-7.26,1.85-.81,3.72-1.56,5.59-2.34.14-.07.28-.15.42-.22Z"/>
      <path class="cls-1" d="m43.54,62.91c-.59-1.41-2.23-1.63-3.1-2.78-1.14-1.51-2.83-2.22-4.71-2.43-.5-.06-.61-.39-.67-.79,3.49-1.96,7.17-3.56,10.62-5.62,4.31-2.59,8.52-5.32,12.5-8.39.3-.23.66-.39.99-.58.12-.1.24-.2.36-.3.36-.29.72-.59,1.08-.88,0,0-.01.01-.01.01.36-.28.71-.55,1.07-.83.14.11.39.2.41.33.29,1.53,1.04,2.59,2.69,2.82.54.08.83.4.88.95-.67.82-1.17,1.81-2.21,2.27-.04.05-.09.1-.14.14-.85,1.51-2.28,2.46-3.49,3.61-4.57,4.32-9.49,8.2-14.73,11.66-.48.32-1.01.54-1.52.81Z"/>
      <path class="cls-7" d="m82.53,83.7c-.08.76-.43,1.38-.97,1.9-.1.12-.2.24-.3.35-.07.08-.14.16-.2.24,0,0,.04,0,.04,0-1.99,1.68-4.21,2.34-6.68,1.23-2.52-1.13-3.9-3.13-3.94-5.9-.09-6.47-.09-12.95-.16-19.42,0-.73.19-1.3.73-1.8.82-.75,1.6-1.53,2.39-2.31.68.13,1.55-.31,1.98.52.48.91.83,1.9,1.25,2.82.39.87-.97,1.79-1.56,2.69-.5.76-1.16,1.41-1.77,2.09-.26.3-.65.68-.36,1,.65.73-.21,2.47,1.6,2.4.07,0,.15.12.2.2,1.05,1.49,2.47,2.7,3.24,4.39.19.41.43.78.84.97.86.4,1.56.85,1.71,1.95.07.54.66.78,1.27.73.74-.06.58-.62.63-1.08.05-.44-.23-1.01.46-1.22.02,2.61.36,5.24-.23,7.83-.05.14-.11.28-.16.42Z"/>
      <path class="cls-5" d="m37.33,40.81c-.14-2.77-.15-5.53,0-8.3.56-.42.57-.85,0-1.27-.27-3.75-.18-7.51-.07-11.26.45-.03.88-.51,1.36-.11.96.79,1.9,1.6,2.87,2.37,1.5,1.19,2.52,2.96,4.32,3.75,2.81,1.23,3.5,2.18,3.55,5.23.02.99-.28,2.01.24,2.96,0,.44,0,.88.01,1.32,0,.2,0,.4,0,.59,0,.34,0,.68,0,1.01-3.19,2.21-6.37,4.44-9.69,6.46-.91.55-1.72.8-2.65.21,0-.19,0-.39,0-.58.81-.78.62-1.58.05-2.38Z"/>
      <path class="cls-4" d="m82.92,75.44c-.69.2-.41.78-.46,1.22-.05.46.11,1.02-.63,1.08-.61.05-1.2-.19-1.27-.73-.15-1.1-.85-1.55-1.71-1.95-.41-.19-.65-.56-.84-.97-.77-1.69-2.2-2.9-3.24-4.39-.05-.08-.14-.2-.2-.2-1.81.06-.94-1.67-1.6-2.4-.28-.32.1-.7.36-1,.6-.69,1.27-1.34,1.77-2.09.59-.9,1.95-1.82,1.56-2.69-.41-.92-.77-1.91-1.25-2.82-.43-.82-1.3-.39-1.98-.52,3.26-3.95,6.43-7.97,8.92-12.47.09-.16.18-.35.46-.29.3.35.17.81.18,1.21.02,9.43.02,18.86.02,28.29,0,.24-.06.48-.09.71Z"/>
      <path class="cls-2" d="m38.3,69.89c3.88-2.23,7.76-4.45,11.41-7.07,5.18-3.71,10.02-7.82,14.76-12.07,1.27.85,2.54,1.61,4.13,1.77,1.6.16,1.72.53.75,1.75-.17.21-.3.42-.12.62.3.34.62.15.87-.09.77-.73,1.59-1.38,2.61-1.73-.13,1.05-1.01,1.61-1.64,2.29-4.89,5.29-10.26,10.04-16.3,14.01-.24.16-.51.27-.76.41.45-1.26,1.9-1.39,2.62-2.34.19-.26.57-.44.45-.83-.14-.45-.55-.46-.94-.48-1.47-.06-2.78.57-4.17.88-.98-.37-2.12-.89-3-.5-2.46,1.09-5.13,1.42-7.6,2.39-1.01.39-1.86,1.18-3.06,1Z"/>
      <path class="cls-10" d="m37.26,9.22c-.09-1.27-.22-2.53.13-3.78.32-.13.42-.3.1-.55C38.11,2.03,40.18.19,42.98,0c2.65-.17,5.53,1.78,6.39,4.32.28.83.42,1.68.42,2.56,0,4.63,0,9.25-.02,13.88,0,.28-.1.55-.15.83,0-2.07,0-4.14,0-6.22-.26,1.4-.26,2.79-.27,4.18,0,.32.09.71-.31.89-.41.18-.75.02-1.05-.26-1.58-1.47-3.21-2.85-4.55-4.61-1.16-1.52-2.49-3.07-4.25-4-.79-.42-1.37-.82-1.44-1.74-.02-.33-.15-.55-.49-.62Z"/>
      <path class="cls-6" d="m11.67,56.55c-.03-4.25-.08-8.51-.09-12.76-.01-5.08-.03-10.16.03-15.23.03-2.89,2.61-4.6,5.24-3.58,1.39.54,2.22,1.58,2.29,3.07.36,8.12.19,16.24.24,24.36,0,.13-.1.26-.16.39-.11,0-.22-.01-.34-.02-.1-3.56-.2-7.12-.31-10.68,0-.29-.04-.58-.11-.85-.22-.84-.57-1.29-1.64-1.06-.79.17-1.6.6-2.52.16-1.19-.57-2.08.02-2.1,1.35-.06,4.57.09,9.15-.28,13.72-.05.38.11.82-.26,1.13Z"/>
      <path class="cls-3" d="m51.97,67.01c1.39-.31,2.7-.95,4.17-.88.39.02.8.03.94.48.12.4-.26.58-.45.83-.72.96-2.17,1.09-2.62,2.34-2.06,1.71-4.45,2.88-6.79,4.13-8.88,4.75-18.24,8.21-28.17,10.04-2.33.43-4.7.62-7.08.47-1.48-.09-2.22-1.02-2.31-2.79-.1-1.85.58-3.05,1.96-3.21,5.55-.64,10.94-1.9,16.14-3.93.22-.09.47-.09.7-.14.02.06.03.13.02.19-.07.3-.22.49-.53.61-2.64,1.05-5.33,1.99-8.12,2.58-2.58.54-5.2.88-7.79,1.39-1.61.32-1.79.72-1.61,2.76.1,1.14.99,1.94,2.25,1.96,2.56.04,5.08-.35,7.58-.83,4.06-.78,8.05-1.9,11.94-3.3,1.89-.68,3.81-1.33,5.51-2.44,1.1-.72,1.33-2.27.43-2.97-.69-.54-1.14-1.29-1.86-1.78.2-.33.58-.33.88-.43,3.05-1.01,6.15-1.9,9.16-3.03,1.87-.71,3.93-.89,5.64-2.06Z"/>
      <path class="cls-12" d="m37.26,9.22c.34.07.46.29.49.62.07.92.65,1.33,1.44,1.74,1.76.93,3.09,2.48,4.25,4,1.34,1.76,2.97,3.14,4.55,4.61.3.28.64.45,1.05.26.4-.18.3-.57.31-.89.01-1.39,0-2.79.27-4.18,0,2.07,0,4.15,0,6.22,0,.26,0,.52,0,.78,0,.72,0,1.43,0,2.15,0,3.22-.01,6.44-.02,9.66-.52-.95-.23-1.98-.24-2.96-.05-3.06-.74-4-3.55-5.23-1.8-.78-2.82-2.56-4.32-3.75-.97-.77-1.92-1.58-2.87-2.37-.49-.4-.91.07-1.36.11-.14-3.58-.14-7.17,0-10.75Z"/>
      <path class="cls-1" d="m54.24,18.43c.76-2.07,2.38-3.11,4.44-3.42,2.43-.37,4.47.51,5.99,2.43,1.77,2.23,1.67,4.83,1.36,7.45-1.54.53-2.58,1.81-3.91,2.65-2.04-3.05-5.16-4.8-8.14-6.71,0-.27-.01-.54-.02-.82.5-.46.29-1.04.27-1.58Z"/>
      <path class="cls-9" d="m49.83,76.36c0,2.28,0,4.29,0,6.3-.02,10.59-.03,21.17-.05,31.76,0,.68,0,1.35-.01,2.03-.1,3.86-2.67,6.52-6.3,6.52-3.67,0-6.03-2.42-6.16-6.41-.1-2.99-.11-5.99-.12-8.99-.03-7.88,0-15.76-.07-23.64-.01-1.3.28-1.93,1.6-2.35,3.23-1.03,6.2-2.67,9.2-4.22.54-.28,1.08-.56,1.92-1Zm-.76,21.77c0-6.19,0-12.37,0-18.56,0-1.63-.46-1.97-1.86-1.12-2.66,1.6-5.57,2.63-8.37,3.9-.94.43-1.15,1.13-1.08,1.98.21,2.6.18,5.22.22,7.82.14,8.07.05,16.14.05,24.22,0,1.32.18,2.64.98,3.7,1.58,2.11,4.08,2.69,6.92,1.76,1.66-.54,3.14-3.02,3.14-5.28,0-6.14,0-12.28,0-18.42Z"/>
      <path class="cls-8" d="m62.13,27.53c1.33-.84,2.37-2.11,3.91-2.65.19,2.07.12,4.13.02,6.2-.02.5-.16.92-.56,1.27-3.69,3.31-7.4,6.6-11.5,9.41-.13-.02-.27-.03-.4-.05-.19-3.69-.14-7.38.04-11.07.69.74.26,1.65.35,2.47.07.73.27.86.86.38,2.42-2,4.86-3.98,7.29-5.96Z"/>
      <path class="cls-2" d="m37.28,43.78c.94.6,1.74.35,2.65-.21,3.32-2.02,6.5-4.24,9.69-6.46.33,2.34.11,4.7.24,7.05.02.35-.06.67-.39.87-3.93,2.42-7.71,5.08-12.02,6.82-.03.01-.09-.03-.17-.06v-8.02Z"/>
      <path class="cls-5" d="m72.71,53.07c-1.02.36-1.84,1-2.61,1.73-.25.24-.57.43-.87.09-.18-.21-.04-.41.12-.62.97-1.22.84-1.59-.75-1.75-1.59-.16-2.86-.92-4.13-1.77,1.53-1.58,3.07-3.16,4.6-4.74,0,0,0,.02,0,.02.09-.09.18-.18.27-.28,0,0,.02-.02.02-.02.08-.09.17-.17.25-.25,0,0,.04-.05.04-.05.02-.09.08-.15.17-.18.2-.06.37-.15.39-.39,0,0-.02.02-.02.02.1-.1.2-.21.3-.31,0,0-.02.02-.02.02.1-.1.2-.21.3-.31,0,0-.02.02-.02.02.18-.03.28-.13.29-.32,0,0-.02.02-.02.02.19-.02.29-.12.29-.31,0,0-.02.01-.02.01,1.16-.92,2.33-1.59,3.97-1.43,2.16.21,3.36,1.4,3.12,3.56,0,0,0-.01,0-.01-.09.13-.18.27-.27.4.02.08,0,.13-.08.17-.08.1-.16.2-.24.31,0,0,0,0,0,0-.09.13-.18.25-.27.38-1.44,2.15-2.9,4.27-4.86,6Z"/>
      <path class="cls-9" d="m27.13,95.57c-1.6,0-3.2.05-4.79-.01-1.89-.07-2.71-1.28-2.63-3.72.06-2.05.86-2.87,2.8-2.87,2.95,0,5.9.03,8.85.04.6,0,1.15.08,1.58.56.7.79.88,4.59.27,5.47-.37.53-.91.47-1.43.52-.1,0-.19,0-.29,0-1.45,0-2.9,0-4.36,0h0Z"/>
      <path class="cls-12" d="m78.42,45.83c.24-2.16-.96-3.35-3.12-3.56-1.64-.16-2.81.51-3.97,1.43.9-1.67,2.41-2.85,3.54-4.35,2.52-3.35,5.08-6.67,7.63-10,.03-.04.05-.09.08-.12.71-.64,1.27-2,2.35-1.44.94.48.49,1.78.26,2.67-1.34,5.16-3.39,10.04-6.12,14.62-.17.28-.43.5-.65.75Z"/>
      <path class="cls-9" d="m27.19,106.25c-1.5,0-2.99.01-4.49,0-1.68-.01-2.48-.69-2.78-2.31-.55-2.94.55-4.26,3.51-4.23,2.6.03,5.21.02,7.81.06,1.65.03,2.21.59,2.35,2.26.35,3.88-.02,4.28-3.81,4.24-.87,0-1.74,0-2.6,0v-.02Z"/>
      <path class="cls-14" d="m65.64,44.41c-.04-.55-.33-.87-.88-.95-1.64-.23-2.4-1.3-2.69-2.82-.02-.13-.27-.22-.41-.33,1.27-1.16,2.51-2.36,3.8-3.49,3.61-3.15,6.74-6.75,9.82-10.4.15-.17.33-.31.62-.56.19,1.9-.56,3.43-1.2,4.93-2.06,4.88-4.99,9.23-8.49,13.19-.15.17-.38.28-.57.42Z"/>
      <path class="cls-14" d="m54.96,7.33c0-2.68,2.01-4.74,4.64-4.76,2.94-.02,5.2,2.16,5.23,5.07.02,2.39-2.31,4.62-4.86,4.64-2.76.03-5.01-2.2-5-4.96Z"/>
      <path class="cls-6" d="m28.21,16.2c2.73-.01,4.74,1.98,4.78,4.73.03,2.5-2.02,4.53-4.62,4.56-2.66.02-4.81-2.01-4.79-4.54.02-2.65,2.06-4.74,4.63-4.75Z"/>
      <path class="cls-6" d="m19.75,17.4c0,2.59-1.77,4.32-4.41,4.3-2.44-.02-4.52-2.08-4.47-4.41.05-2.33,2.21-4.47,4.51-4.47,2.6,0,4.37,1.86,4.37,4.58Z"/>
      <path class="cls-10" d="m62.13,27.53c-2.43,1.99-4.87,3.97-7.29,5.96-.58.48-.78.35-.86-.38-.09-.83.35-1.73-.35-2.47-.11-.25-.11-.49.01-.74.49-.4.34-.96.34-1.47.01-2.54,0-5.07,0-7.61,2.98,1.91,6.1,3.65,8.14,6.71Z"/>
      <path class="cls-6" d="m23.04,45.24c0-3.77-.03-7.54,0-11.3.03-3.16,2.33-5.72,5.21-5.6,2.9.13,5.21,2.04,5.25,5.59.07,6.28.03,12.56.07,18.84,0,.95-.32,1.53-1.2,1.9-2.62,1.11-5.23,2.24-7.82,3.43-1.15.53-1.54.32-1.53-.98.05-3.96.02-7.92.02-11.88h0Zm.77,6.67c-.18,1.33-.41,2.65-.28,4,.15,1.55.54,1.77,1.91,1.14,2-.91,3.99-1.84,6-2.71.94-.4,1.47-.9,1.39-2.04-.11-1.58-.04-3.17-.05-4.76,0-4.69.03-9.37.01-14.06,0-1.85-1.39-3.65-3.06-4.14-1.92-.56-3.95.2-5.13,1.75-1.02,1.34-1.03,2.91-1.04,4.4-.02,3.03-.07,6.06.15,9.1.18,2.41-.47,4.87.09,7.31Z"/>
      <path class="cls-1" d="m92.96,22.33c-.95,1.91-3.27,2.85-5.52,2.24-2.59-.69-4.2-2.88-4.01-5.44.17-2.26,1.63-4.05,3.62-4.45.08,2.35.2,4.78,2.37,6.2,1.02.67,1.75,2.51,3.54,1.45Z"/>
      <path class="cls-13" d="m18.88,52.79c.11,0,.22.01.34.02.07,1.97.12,3.95.21,5.92.04.87-.23,1.41-1.11,1.77-1.82.75-3.6,1.62-5.38,2.48-.91.44-1.34.34-1.31-.77.04-1.3.02-2.6.03-3.9.03-.03.1-.07.1-.09-.02-.08-.06-.15-.09-.22,0-.48,0-.96,0-1.44.36-.31.2-.75.26-1.13.21.16.29.39.26.64-.17,1.44.44,1.41,1.43.8,1.51-.93,3.05-1.82,4.57-2.74.49-.3.75-.74.7-1.33Z"/>
      <path class="cls-9" d="m13.25,106.33c-2.69-.04-3.61-.96-3.57-3.53.05-2.47.99-3.36,3.49-3.32,2.53.04,3.63,1.21,3.62,3.82-.02,2.3-.91,3.07-3.54,3.03Z"/>
      <path class="cls-9" d="m13.24,95.55c-2.44.02-3.62-1.12-3.63-3.5,0-2.35,1.02-3.44,3.29-3.48,2.5-.04,3.85,1.3,3.87,3.84.01,1.98-1.26,3.12-3.53,3.13Z"/>
      <path class="cls-14" d="m92.96,22.33c-1.79,1.07-2.52-.78-3.54-1.45-2.17-1.42-2.3-3.85-2.37-6.2,0,0,.02.03.02.03.41,0,.85.16,1.19-.23.43,0,.87,0,1.3-.01,0,0-.02,0-.02,0,3.74.6,5.65,4.55,3.65,7.55-.08.11-.16.22-.25.32,0,0,.02-.01.02-.01Z"/>
      <path class="cls-3" d="m0,81.31c0-2.02,1.35-3.41,3.32-3.43,2.05-.02,3.36,1.37,3.33,3.54-.02,1.83-1.4,3.2-3.22,3.2C1.4,84.61,0,83.26,0,81.31Z"/>
      <path class="cls-4" d="m51.97,67.01c-1.7,1.16-3.76,1.35-5.64,2.06-3,1.13-6.1,2.02-9.16,3.03-.31.1-.68.1-.88.43-.28.04-.57.06-.85.12-2.34.52-4.54,1.58-6.95,1.89,0-.07,0-.13-.02-.19,3-1.35,6.01-2.69,9.01-4.04.5.32.78.18.82-.41,0,0,0,0,0,0,1.2.18,2.05-.61,3.06-1,2.47-.97,5.14-1.3,7.6-2.39.88-.39,2.03.13,3,.5Z"/>
      <path class="cls-9" d="m26.98,110.44c1.35,0,2.71,0,4.06,0,.38,0,.79,0,1.15.11,1.18.34,1.67,2.03,1.37,4.5-.15,1.28-.62,2.25-2.12,2.25-2.99,0-5.99,0-8.98,0-1.07,0-1.7-.64-2.08-1.53-.57-1.35-.49-2.75.03-4.1.35-.91,1.12-1.28,2.08-1.27,1.5,0,2.99,0,4.49,0v.04Zm-.13.7c-1.4,0-2.8-.02-4.2,0-1.09.02-1.69.61-1.74,1.7-.03.72-.04,1.45,0,2.17.06,1.01.64,1.62,1.66,1.63,2.8.03,5.6.06,8.39-.01,1.12-.03,1.93-.6,1.85-1.92-.03-.53,0-1.06,0-1.59-.03-1.43-.58-1.96-2.05-1.98-1.3-.01-2.61,0-3.91,0Z"/>
      <path class="cls-14" d="m95.02,6.01c.03,1.23-1.06,2.38-2.25,2.39-1.19,0-2.3-1.11-2.31-2.31-.01-1.27,1-2.36,2.23-2.39,1.18-.04,2.31,1.08,2.33,2.32Z"/>
      <path class="cls-6" d="m.07,92.19c.02-1.94,1.17-3.07,3.09-3.05,1.77.02,3.11,1.4,3.08,3.16-.03,1.75-1.41,3.06-3.21,3.04-1.92-.02-2.98-1.15-2.96-3.15Zm3.1-2.27c-1.45,0-2.31.87-2.32,2.31,0,1.46.88,2.39,2.27,2.36,1.39-.03,2.39-1.01,2.4-2.35,0-1.36-.98-2.33-2.35-2.33Z"/>
      <path class="cls-9" d="m53.37,108.29c-.03-1.79,1.16-3.11,2.87-3.17,1.78-.07,3.28,1.35,3.31,3.13.03,1.61-1.37,3.06-3.02,3.11-1.75.06-3.14-1.29-3.17-3.07Zm3.05,2.27c1.49,0,2.5-.92,2.52-2.3.01-1.38-1.01-2.34-2.47-2.34-1.59,0-2.45.8-2.46,2.3,0,1.52.84,2.33,2.41,2.34Z"/>
      <path class="cls-2" d="m28.33,84.53c1.26.13,2.39-.54,3.61-.78.41-.08.83-.37,1.22-.01.19.18.16.46.03.67-.28.48-.77.29-1.17.32-1.24.09-2.46-.16-3.69-.2Z"/>
      <path class="cls-8" d="m53.99,20.83c0,2.54,0,5.07,0,7.61,0,.51.15,1.07-.34,1.47-.08-3.32-.4-6.63.11-9.94.07.02.15.03.22.05,0,.27.01.54.02.82Z"/>
      <path class="cls-10" d="m53.97,20.01c-.07-.01-.15-.03-.22-.05-.23-.64.04-1.11.48-1.54.02.55.23,1.12-.27,1.58Z"/>
      <path class="cls-2" d="m37.33,40.81c.57.81.76,1.6-.05,2.38-.17-.8-.04-1.59.05-2.38Z"/>
      <path class="cls-10" d="m49.63,24.53c0-.72,0-1.43,0-2.15.24.72.23,1.43,0,2.15Z"/>
      <path class="cls-1" d="m88.25,14.48c-.34.39-.78.22-1.19.23.34-.39.73-.46,1.19-.23Z"/>
      <path class="cls-2" d="m38.31,69.89c-.05.59-.32.73-.82.41.27-.14.55-.28.82-.41Z"/>
      <path class="cls-12" d="m37.5,4.89c.32.25.22.42-.1.55-.15-.22-.08-.4.1-.55Z"/>
      <path class="cls-2" d="m37.33,31.24c.57.42.56.85,0,1.27,0-.42,0-.85,0-1.27Z"/>
      <path class="cls-10" d="m53.6,41.72c.13.02.27.03.4.05-.02.2-.16.37-.34.34-.25-.04-.18-.23-.06-.38Z"/>
      <path class="cls-2" d="m49.62,36.1c0-.2,0-.4,0-.59.18.2.18.4,0,.59Z"/>
      <path class="cls-1" d="m92.93,22.34c.08-.11.16-.22.25-.32.08.23-.06.3-.25.32Z"/>
      <path class="cls-14" d="m59.53,42.01c-.12.1-.24.2-.36.3.04-.19.11-.36.36-.3Z"/>
      <path class="cls-4" d="m81.26,85.95c.1-.12.2-.24.3-.35.01.22-.08.34-.3.35Z"/>
      <path class="cls-12" d="m70.22,44.88c-.02.24-.19.33-.39.39.05-.22.17-.35.39-.39Z"/>
      <polygon class="cls-1" points="89.53 14.47 89.55 14.47 89.57 14.34 89.53 14.47"/>
      <path class="cls-12" d="m69.07,46.04s0-.02,0-.02c0,0,0,.02,0,.02Z"/>
      <path class="cls-6" d="m11.66,58c.03.07.07.14.09.22,0,.02-.06.06-.1.09,0-.1,0-.2,0-.31Z"/>
      <path class="cls-12" d="m71.07,43.99c-.01.19-.11.29-.29.32.1-.11.2-.21.29-.32Z"/>
      <path class="cls-12" d="m71.35,43.69c0,.19-.1.3-.29.31.1-.1.2-.21.29-.31Z"/>
      <path class="cls-1" d="m34.55,57.15c-.14.07-.28.15-.42.22.14-.07.28-.15.42-.22Z"/>
      <path class="cls-14" d="m60.6,41.13s.01-.01.01-.01c0,0-.01.01-.01.01Z"/>
      <path class="cls-12" d="m70.79,44.29c-.1.1-.2.21-.3.31.1-.1.2-.21.3-.31Z"/>
      <polygon class="cls-12" points="69.66 45.45 69.62 45.49 69.6 45.43 69.66 45.45"/>
      <path class="cls-4" d="m82.53,83.7c.05-.14.11-.28.16-.42-.05.14-.11.28-.16.42Z"/>
      <path class="cls-4" d="m81.1,86.19s-.04,0-.04,0c0,0,.04,0,.04,0Z"/>
      <polygon class="cls-12" points="69.36 45.75 69.34 45.77 69.32 45.72 69.36 45.75"/>
      <path class="cls-12" d="m77.57,47.08c.09-.13.18-.25.27-.38-.09.13-.18.25-.27.38Z"/>
      <path class="cls-14" d="m63.29,46.82c.05-.05.1-.09.14-.14,0,.09-.05.14-.14.14Z"/>
      <path class="cls-12" d="m77.83,46.71c.08-.1.16-.2.24-.31-.08.1-.16.2-.24.31Z"/>
      <path class="cls-12" d="m78.15,46.23c.09-.13.18-.27.27-.4-.09.13-.18.27-.27.4Z"/>
      <path class="cls-12" d="m70.51,44.59c-.1.1-.2.21-.3.31.1-.1.2-.21.3-.31Z"/>
      <path class="cls-3" d="m18.88,52.79c.05.59-.2,1.03-.7,1.33-1.52.92-3.06,1.81-4.57,2.74-.99.61-1.6.64-1.43-.8.03-.25-.05-.48-.26-.64.37-4.57.22-9.14.28-13.72.02-1.33.91-1.92,2.1-1.35.92.44,1.74.01,2.52-.16,1.07-.23,1.42.22,1.64,1.06.07.28.1.57.11.85.11,3.56.2,7.12.31,10.68Z"/>
      <path class="cls-13" d="m28.49,74.54c2.4-.3,4.6-1.37,6.95-1.89.28-.06.57-.08.85-.12.72.49,1.17,1.24,1.86,1.78.9.7.67,2.26-.43,2.97-1.69,1.11-3.62,1.76-5.51,2.44-3.89,1.39-7.88,2.51-11.94,3.3-2.49.48-5.02.87-7.58.83-1.25-.02-2.15-.81-2.25-1.96-.18-2.04,0-2.44,1.61-2.76,2.59-.51,5.21-.85,7.79-1.39,2.79-.58,5.47-1.52,8.12-2.58.32-.13.46-.32.53-.61Z"/>
      <path class="cls-11" d="m49.07,98.13c0,6.14,0,12.28,0,18.42,0,2.26-1.48,4.73-3.14,5.28-2.84.93-5.34.35-6.92-1.76-.8-1.06-.98-2.38-.98-3.7,0-8.07.09-16.15-.05-24.22-.04-2.6-.02-5.22-.22-7.82-.07-.85.14-1.55,1.08-1.98,2.8-1.27,5.71-2.3,8.37-3.9,1.4-.85,1.86-.5,1.86,1.12,0,6.19,0,12.37,0,18.56Z"/>
      <path class="cls-3" d="m23.81,51.9c-.56-2.44.08-4.9-.09-7.31-.22-3.04-.18-6.07-.15-9.1.01-1.49.02-3.06,1.04-4.4,1.18-1.54,3.21-2.31,5.13-1.75,1.68.49,3.05,2.29,3.06,4.14.02,4.69,0,9.37-.01,14.06-.35.14-.74.23-1.06.42-2.53,1.53-5.28,2.62-7.92,3.93Z"/>
      <path class="cls-13" d="m23.81,51.9c2.64-1.31,5.38-2.4,7.92-3.93.32-.19.7-.28,1.06-.42,0,1.59-.06,3.18.05,4.76.08,1.13-.45,1.63-1.39,2.04-2.02.86-4.01,1.79-6,2.71-1.38.63-1.77.41-1.91-1.14-.13-1.35.1-2.67.28-4Z"/>
      <path class="cls-11" d="m26.85,111.14c1.3,0,2.61-.01,3.91,0,1.47.02,2.02.55,2.05,1.98.01.53-.02,1.06,0,1.59.08,1.32-.73,1.89-1.85,1.92-2.8.07-5.6.05-8.39.01-1.02-.01-1.59-.62-1.66-1.63-.05-.72-.04-1.45,0-2.17.05-1.09.66-1.68,1.74-1.7,1.4-.03,2.8,0,4.2,0Z"/>
      <path class="cls-13" d="m3.17,89.93c1.37,0,2.35.97,2.35,2.33,0,1.34-1.01,2.32-2.4,2.35-1.39.03-2.28-.9-2.27-2.36,0-1.45.87-2.31,2.32-2.31Z"/>
      <path class="cls-7" d="m56.42,110.56c-1.58,0-2.42-.83-2.41-2.34,0-1.5.86-2.3,2.46-2.3,1.47,0,2.49.97,2.47,2.34-.01,1.38-1.03,2.31-2.52,2.3Z"/>
    </g>
  </g>
</svg>