<?xml version="1.0" encoding="UTF-8"?>
<svg id="Calque_2" data-name="Calque 2" xmlns="http://www.w3.org/2000/svg" viewBox="0 0 512.65 185.54">
  <defs>
    <style>
      .cls-1 {
        fill: #6bc942;
      }

      .cls-1, .cls-2, .cls-3, .cls-4, .cls-5, .cls-6, .cls-7, .cls-8, .cls-9, .cls-10, .cls-11, .cls-12, .cls-13, .cls-14, .cls-15 {
        stroke-width: 0px;
      }

      .cls-2 {
        fill: #36af99;
      }

      .cls-3 {
        fill: #4bc7e9;
      }

      .cls-4 {
        fill: #1f99d2;
      }

      .cls-5 {
        fill: #40bd8f;
      }

      .cls-6 {
        fill: #5ac7e6;
      }

      .cls-7 {
        fill: #1080d3;
      }

      .cls-8 {
        fill: #fff;
      }

      .cls-9 {
        fill: #41ab4f;
      }

      .cls-10 {
        fill: #1972c8;
      }

      .cls-11 {
        fill: #63cf6e;
      }

      .cls-12 {
        fill: #0769cf;
      }

      .cls-13 {
        fill: #5bca7f;
      }

      .cls-14 {
        fill: #3cbdf3;
      }

      .cls-15 {
        fill: #79d044;
      }
    </style>
  </defs>
  <g id="OBJECTS">
    <g>
      <path class="cls-8" d="m452.53,81.36c2.55-2.82,4.91-4.96,8.17-5.66,7.29-1.55,13.99-.96,18.94,5.51.73.95,1.08.49,1.62-.14,5.33-6.23,12.19-7.39,19.68-5.48,6.43,1.64,10.07,6.15,11.2,12.64.29,1.64.41,3.34.42,5.01.05,8.47.02,16.94.09,25.4,0,1.27-.21,1.82-1.65,1.75-2.48-.13-4.97-.12-7.44.01-1.44.08-1.66-.47-1.64-1.75.08-7.37.1-14.75.09-22.12,0-1.31-.1-2.63-.34-3.91-.96-5.03-4.57-7.92-9.57-7.76-4.78.16-8.25,3.38-8.87,8.34-.17,1.37-.2,2.77-.2,4.15,0,7.01,0,14.02.07,21.02.02,1.46-.28,2.1-1.9,2-2.33-.14-4.68-.14-7,.01-1.54.1-1.81-.5-1.81-1.86.03-6.93-.01-13.87-.04-20.81,0-1.31,0-2.63-.1-3.94-.41-5.17-3.89-8.68-8.79-8.92-5.25-.26-9.13,2.83-10.02,8.06-.23,1.36-.32,2.76-.32,4.14-.03,7.08-.05,14.16,0,21.24.01,1.51-.19,2.24-1.98,2.1-2.39-.19-4.82-.08-7.22-.02-1.03.03-1.55-.09-1.55-1.37.05-13.94.06-27.89.02-41.83,0-1.2.41-1.47,1.51-1.44,2.33.07,4.67.07,7.01,0,1.2-.03,1.75.31,1.64,1.6-.1,1.13-.02,2.27-.02,3.98Z"/>
      <path class="cls-1" d="m282.94,72.96c.3-.45.61-.9.91-1.35,0,0-.05.06-.05.06.55-.66,1.1-1.32,1.64-1.98.66,1.27-.45,2-.94,2.89-.36.64-1.03,1.46-.38,1.91,1.3.88,2.23,2.26,3.78,2.77.44.15.77.16,1.15-.23,1.69-1.75,2.27-1.66,3.63.51-.17.26-.34.52-.51.78-.12.18-.24.37-.37.55-2.95,5.74-4.04,11.77-2.07,17.99,4.79,15.11,20.69,18.51,32.59,11.67.78-.45,1.13-1.07,1.13-1.96,0-2.55,0-5.11.06-7.66.04-1.35-.57-1.78-1.85-1.76-3.79.03-7.59-.06-11.38,0-1.42.02-1.95-.48-1.89-1.91.09-1.89.07-3.79.01-5.69-.04-1.22.47-1.73,1.66-1.73,7.3-.01,14.59-.03,21.89-.06,1.19,0,1.78.59,1.79,1.72.08,7.37.14,14.73.19,22.1.01,1.48-1.21,2.12-2.18,2.82-9.55,6.99-20.16,9.04-31.54,6.05-21.15-5.55-27.5-28.43-18.45-45.48.38-.71.81-1.38,1.22-2.07,0,0-.05.06-.05.06Z"/>
      <path class="cls-8" d="m205.82,102.3c-4.74,0-9.49,0-14.23,0-2.45,0-2.49.09-1.5,2.44,3,7.14,12.22,10.01,19.77,6.15,1.24-.63,2.44-1.36,3.38-2.38.83-.91,1.35-.66,2.08.11,1.15,1.21,2.34,2.43,3.66,3.45,1.29,1,1.05,1.68.06,2.73-6.41,6.79-18.33,8.51-27.89,4.3-13.02-5.73-14.67-21.4-10.55-30.85,4.83-11.07,17.71-16.38,28.68-11.74,8.69,3.68,12.43,10.81,13.17,19.81.49,5.97.42,5.97-5.49,5.95-3.72-.01-7.44,0-11.16,0v.02Zm-5.3-7.41v.02c3.21,0,6.42-.12,9.61.04,2.04.11,2.09-.69,1.69-2.3-1.35-5.53-5.61-8.95-11.16-8.85-5.8.11-10.52,4.13-11.55,9.71-.21,1.14.06,1.4,1.13,1.39,3.42-.04,6.85-.01,10.27-.01Z"/>
      <path class="cls-8" d="m258.88,116.26c-6.26,5.65-13.36,6.19-20.7,4.05-9.81-2.87-13.28-14.66-6.72-22.13,3.12-3.55,7.38-4.56,11.81-4.9,4.67-.36,9.34-.26,13.87,1.2,1,.32,1.37.18,1.38-1.02.05-4.91-2.9-8.34-8.03-8.99-4.8-.61-9.49-.05-13.91,1.94-1.34.6-1.91.46-2.31-.96-.45-1.61-1.01-3.2-1.64-4.75-.51-1.26-.25-1.98,1.03-2.52,7.78-3.28,15.76-4.3,23.92-1.81,7.16,2.19,10.89,7.34,11.42,14.7.6,8.38.04,16.79.16,25.18.06,4.11,0,4.11-4.08,4.11-.73,0-1.46,0-2.19,0q-3.77,0-4.03-4.09Zm-10.34-16.47c-2.3-.06-4.53.24-6.57,1.35-3.99,2.18-4.62,7.97-.97,10.68,4.04,3,8.53,2.64,12.87.63,3.91-1.81,5.29-4.77,4.99-9.54-.07-1.09-.51-1.54-1.47-1.81-2.9-.8-5.86-1.18-8.86-1.32Z"/>
      <path class="cls-8" d="m386.76,98.33c-.02-13.38,9.96-23.43,23.32-23.49,13.58-.06,23.81,9.78,23.86,22.94.05,13.4-10.04,23.48-23.54,23.52-13.78.04-23.61-9.52-23.64-22.97Zm36.52.54c-.04-4.75-1.24-8.47-4.48-11.31-5.43-4.76-13.75-4.18-18.21,1.22-4.98,6.02-4.23,15.96,1.64,20.51,4.15,3.22,8.78,3.9,13.56,1.63,5.25-2.49,7.34-7.01,7.48-12.05Z"/>
      <path class="cls-8" d="m363.7,121.41c-7.3-.25-14.75-3.2-19.3-11.09-4.79-8.29-4.37-16.77.42-24.94,4.43-7.54,14.81-11.86,24.16-10.4,4.82.75,9.06,2.62,12.64,5.98,1.01.95,1.11,1.63.05,2.63-1.42,1.36-2.74,2.83-3.99,4.35-.98,1.2-1.67,1.07-2.79.09-5.24-4.56-11.89-5.09-17.11-1.5-6.45,4.44-8,13.96-3.31,20.4,4.52,6.21,13.5,7.25,19.78,2.08,1.72-1.42,2.76-1.57,4.15.19.75.97,1.77,1.73,2.69,2.56,2.1,1.9,2.12,1.91-.06,3.88-4.5,4.08-9.89,5.71-17.33,5.77Z"/>
      <path class="cls-7" d="m100.2,97.67c0,4.57,0,8.71,0,12.84,0,10.43.08,20.86,0,31.29-.05,6.83-5.24,11.32-11.54,10.19-4.31-.77-7.5-4-7.6-8.37-.22-10.28-.18-20.57-.26-30.85,0-.81.26-1.34,1-1.76,6.5-3.65,12.46-8.08,18.4-13.34Z"/>
      <path class="cls-9" d="m52.12,86.23c.26-.12.52-.25.78-.37.08.61.25,1.11,1.01,1.2,2.83.31,5.39,1.38,7.11,3.66,1.31,1.75,3.78,2.08,4.67,4.2-11.85,7.52-24.4,13.4-38.18,16.44-6.87,1.52-13.8,2.28-20.84,1.59-.55-.05-1.16.09-1.8-.46,3.52-4.74,7.8-8.55,12.95-11.43,8.05-4.51,16.83-7.29,25.23-10.96,2.79-1.22,5.62-2.36,8.43-3.54.21-.11.42-.22.63-.33Z"/>
      <path class="cls-8" d="m169.9,89.06c0,9.78-.03,19.56.03,29.34,0,1.48-.3,2.08-1.9,1.99-2.4-.14-4.82-.09-7.22-.02-1.18.04-1.68-.23-1.68-1.55.05-19.92.06-39.84.04-59.77,0-1.29.46-1.6,1.66-1.57,2.33.06,4.68.11,7-.07,1.73-.13,2.04.52,2.03,2.1-.07,9.85-.03,19.7-.03,29.55h.07Z"/>
      <path class="cls-1" d="m65.7,94.92c-.89-2.12-3.36-2.45-4.67-4.2-1.72-2.28-4.28-3.35-7.11-3.66-.76-.08-.93-.59-1.01-1.2,5.27-2.96,10.82-5.37,16.02-8.48,6.51-3.9,12.85-8.03,18.86-12.67.45-.35.99-.59,1.49-.88.18-.15.36-.3.54-.45.54-.44,1.09-.89,1.63-1.33,0,0-.02.02-.02.02.54-.42,1.07-.83,1.61-1.25.22.16.59.29.62.49.44,2.3,1.57,3.91,4.05,4.26.82.12,1.26.61,1.32,1.43-1.01,1.24-1.76,2.73-3.33,3.42-.07.08-.14.15-.22.22-1.28,2.28-3.43,3.72-5.27,5.45-6.89,6.51-14.31,12.37-22.22,17.6-.72.48-1.53.82-2.3,1.22Z"/>
      <path class="cls-7" d="m124.52,126.29c-.12,1.14-.65,2.08-1.47,2.86-.15.18-.3.36-.46.54-.1.12-.2.24-.31.36,0,0,.06,0,.06,0-3.01,2.54-6.35,3.53-10.08,1.85-3.8-1.71-5.89-4.73-5.95-8.91-.13-9.77-.14-19.54-.23-29.31-.01-1.1.28-1.96,1.1-2.71,1.24-1.13,2.41-2.32,3.61-3.48,1.02.19,2.33-.46,2.99.78.72,1.37,1.25,2.87,1.88,4.25.59,1.31-1.47,2.7-2.36,4.05-.75,1.14-1.75,2.13-2.66,3.16-.4.45-.97,1.03-.54,1.51.99,1.1-.32,3.72,2.41,3.63.1,0,.22.18.3.3,1.58,2.24,3.73,4.07,4.89,6.62.28.62.65,1.17,1.26,1.46,1.3.61,2.36,1.29,2.58,2.94.11.81,1,1.17,1.91,1.1,1.12-.09.87-.93.95-1.63.08-.66-.35-1.53.69-1.84.03,3.94.55,7.9-.35,11.82-.08.21-.16.43-.24.64Z"/>
      <path class="cls-15" d="m292.69,77.53c-1.36-2.17-1.94-2.26-3.63-.51-.37.39-.71.38-1.15.23-1.55-.52-2.49-1.89-3.78-2.77-.66-.45.02-1.26.38-1.91.49-.89,1.61-1.61.94-2.89.05-.33.22-.54.56-.58.16-.16.33-.32.49-.48,0,0-.04.04-.04.04.16-.16.32-.32.47-.47,0,0-.03.04-.03.04.16-.17.31-.35.47-.52.64-1.33,1.94-1.95,3.04-2.74,11.25-7.98,28.48-7.72,39.48.55,2.88,2.17,2.91,2.39.65,5.22-.23.28-.41.61-.66.87-1.16,1.21-2.13,2.87-3.55,3.5-1.81.81-2.71-1.47-4.05-2.3-8.26-5.09-21.7-5.37-29.08,4.33-.13.16-.34.26-.51.39Z"/>
      <path class="cls-5" d="m56.32,61.57c-.21-4.17-.22-8.35,0-12.52.84-.64.85-1.28,0-1.92-.41-5.66-.27-11.33-.11-17,.69-.05,1.32-.76,2.06-.16,1.45,1.19,2.87,2.42,4.34,3.58,2.26,1.79,3.81,4.47,6.52,5.65,4.25,1.85,5.28,3.28,5.36,7.89.02,1.49-.42,3.04.37,4.47,0,.66.01,1.33.02,1.99,0,.3,0,.6,0,.9,0,.51,0,1.02,0,1.53-4.81,3.34-9.61,6.69-14.62,9.74-1.37.84-2.59,1.21-4.01.31,0-.29,0-.59,0-.88,1.22-1.17.93-2.38.07-3.59Z"/>
      <path class="cls-4" d="m125.11,113.83c-1.04.31-.61,1.17-.69,1.84-.08.69.16,1.53-.95,1.63-.91.08-1.81-.29-1.91-1.1-.22-1.65-1.28-2.33-2.58-2.94-.61-.29-.98-.85-1.26-1.46-1.16-2.55-3.31-4.38-4.89-6.62-.08-.12-.2-.3-.3-.3-2.73.1-1.42-2.53-2.41-3.63-.43-.48.15-1.06.54-1.51.91-1.04,1.91-2.02,2.66-3.16.89-1.35,2.95-2.75,2.36-4.05-.63-1.39-1.16-2.88-1.88-4.25-.65-1.24-1.97-.59-2.99-.78,4.92-5.96,9.7-12.02,13.46-18.81.13-.24.27-.52.69-.44.45.53.26,1.22.26,1.83.02,14.23.03,28.46.02,42.68,0,.36-.09.72-.14,1.08Z"/>
      <path class="cls-2" d="m57.79,105.45c5.86-3.36,11.71-6.72,17.22-10.66,7.81-5.6,15.13-11.8,22.27-18.21,1.91,1.28,3.83,2.43,6.23,2.66,2.41.24,2.6.79,1.14,2.64-.25.32-.45.63-.19.94.45.52.93.23,1.31-.13,1.16-1.1,2.4-2.07,3.93-2.61-.2,1.59-1.53,2.44-2.47,3.45-7.38,7.98-15.48,15.15-24.59,21.14-.36.24-.77.41-1.15.61.68-1.89,2.87-2.09,3.95-3.53.29-.39.86-.66.68-1.26-.21-.68-.83-.7-1.42-.73-2.21-.09-4.2.86-6.29,1.33-1.47-.56-3.2-1.35-4.53-.76-3.71,1.64-7.74,2.15-11.47,3.6-1.52.6-2.81,1.79-4.62,1.51Z"/>
      <path class="cls-11" d="m56.22,13.92c-.14-1.91-.34-3.82.2-5.71.48-.2.63-.46.15-.84C57.5,3.06,60.63.28,64.85.02c3.99-.25,8.34,2.68,9.65,6.52.43,1.25.63,2.54.63,3.86,0,6.98,0,13.96-.03,20.94,0,.42-.15.84-.23,1.26,0-3.13,0-6.25,0-9.38-.4,2.11-.39,4.21-.41,6.31,0,.49.14,1.07-.46,1.34-.61.28-1.13.03-1.58-.4-2.38-2.22-4.85-4.3-6.87-6.95-1.75-2.29-3.76-4.63-6.41-6.03-1.2-.63-2.07-1.24-2.17-2.63-.04-.49-.22-.83-.73-.93Z"/>
      <path class="cls-6" d="m17.6,85.33c-.05-6.42-.12-12.83-.14-19.25-.02-7.66-.04-15.32.05-22.98.05-4.35,3.93-6.94,7.91-5.4,2.1.81,3.36,2.39,3.45,4.63.54,12.25.29,24.5.36,36.76,0,.2-.16.4-.24.6-.17,0-.34-.02-.51-.03-.15-5.37-.3-10.74-.46-16.11-.01-.43-.06-.87-.17-1.29-.33-1.27-.86-1.95-2.48-1.6-1.19.26-2.41.91-3.8.24-1.79-.86-3.14.03-3.16,2.03-.08,6.9.13,13.8-.42,20.69-.08.58.16,1.23-.39,1.71Z"/>
      <path class="cls-3" d="m78.41,101.1c2.09-.47,4.08-1.43,6.29-1.33.59.02,1.21.05,1.42.73.19.6-.38.87-.68,1.26-1.08,1.44-3.27,1.64-3.95,3.53-3.11,2.58-6.72,4.35-10.24,6.23-13.41,7.16-27.52,12.39-42.5,15.15-3.52.65-7.09.93-10.68.71-2.23-.14-3.34-1.54-3.49-4.22-.15-2.79.88-4.6,2.96-4.84,8.37-.96,16.5-2.87,24.36-5.93.33-.13.7-.14,1.06-.21.03.1.04.19.04.29-.11.45-.33.74-.8.93-3.99,1.59-8.04,3.01-12.25,3.89-3.89.81-7.85,1.33-11.75,2.1-2.43.48-2.7,1.08-2.43,4.17.15,1.72,1.5,2.92,3.39,2.95,3.86.06,7.67-.53,11.43-1.25,6.13-1.18,12.14-2.87,18.01-4.97,2.85-1.02,5.75-2.01,8.31-3.68,1.66-1.08,2.01-3.43.65-4.49-1.04-.81-1.72-1.95-2.8-2.68.31-.5.87-.5,1.33-.65,4.61-1.52,9.28-2.86,13.81-4.57,2.82-1.07,5.94-1.35,8.5-3.1Z"/>
      <path class="cls-13" d="m56.22,13.92c.51.1.7.44.73.93.1,1.39.97,2,2.17,2.63,2.66,1.4,4.67,3.74,6.41,6.03,2.02,2.66,4.48,4.73,6.87,6.95.46.43.97.67,1.58.4.6-.27.46-.86.46-1.34.02-2.1,0-4.2.41-6.31,0,3.13,0,6.26,0,9.38,0,.39,0,.78,0,1.17,0,1.08,0,2.16,0,3.25,0,4.86-.02,9.71-.02,14.57-.79-1.43-.34-2.98-.37-4.47-.08-4.61-1.11-6.04-5.36-7.89-2.71-1.18-4.26-3.86-6.52-5.65-1.47-1.16-2.89-2.39-4.34-3.58-.73-.61-1.37.11-2.06.16-.22-5.41-.21-10.81,0-16.22Z"/>
      <path class="cls-1" d="m81.84,27.81c1.15-3.13,3.59-4.69,6.7-5.17,3.67-.56,6.74.76,9.05,3.67,2.67,3.36,2.52,7.28,2.06,11.24-2.32.8-3.89,2.73-5.89,3.99-3.08-4.61-7.78-7.23-12.28-10.12,0-.41-.02-.82-.02-1.23.75-.69.43-1.56.4-2.39Z"/>
      <path class="cls-10" d="m75.18,115.21c0,3.44,0,6.48,0,9.51-.02,15.97-.05,31.95-.07,47.92,0,1.02,0,2.04-.02,3.06-.15,5.82-4.03,9.83-9.5,9.83-5.54,0-9.1-3.64-9.3-9.67-.15-4.52-.17-9.04-.18-13.56-.04-11.89,0-23.78-.11-35.67-.02-1.96.42-2.91,2.41-3.55,4.87-1.55,9.35-4.03,13.88-6.37.82-.42,1.64-.85,2.89-1.5Zm-1.15,32.85c0-9.34,0-18.67,0-28.01,0-2.45-.69-2.97-2.8-1.69-4.01,2.42-8.4,3.97-12.63,5.89-1.42.65-1.73,1.7-1.63,2.98.31,3.93.27,7.87.34,11.8.2,12.18.07,24.36.08,36.54,0,1.99.27,3.98,1.47,5.59,2.39,3.18,6.15,4.06,10.44,2.66,2.51-.82,4.74-4.55,4.74-7.96,0-9.26,0-18.53,0-27.79Z"/>
      <path class="cls-9" d="m93.74,41.54c2.01-1.27,3.57-3.19,5.89-3.99.29,3.12.19,6.23.04,9.35-.04.75-.25,1.39-.85,1.92-5.57,5-11.17,9.96-17.35,14.2-.2-.03-.4-.05-.6-.07-.28-5.57-.21-11.14.05-16.71,1.05,1.12.4,2.48.52,3.73.11,1.1.41,1.29,1.29.57,3.66-3.01,7.33-6,11-9Z"/>
      <path class="cls-2" d="m56.25,66.05c1.42.9,2.63.52,4.01-.31,5.01-3.05,9.8-6.4,14.62-9.74.49,3.53.17,7.1.36,10.64.03.53-.09,1.01-.59,1.31-5.92,3.65-11.64,7.66-18.14,10.29-.05.02-.13-.04-.26-.09v-12.1Z"/>
      <path class="cls-5" d="m109.7,80.08c-1.53.54-2.77,1.51-3.93,2.61-.38.36-.86.65-1.31.13-.27-.31-.06-.62.19-.94,1.46-1.84,1.27-2.4-1.14-2.64-2.4-.23-4.32-1.39-6.23-2.66,2.31-2.38,4.63-4.77,6.94-7.15,0,0,0,.03,0,.03.14-.14.27-.28.41-.42,0,0,.03-.03.03-.03.13-.13.26-.26.38-.38,0,0,.07-.07.07-.07.04-.14.12-.23.26-.27.3-.09.56-.23.59-.59,0,0-.02.04-.02.04.15-.16.31-.31.46-.47,0,0-.03.03-.03.03.15-.16.3-.32.45-.47,0,0-.03.03-.03.03.28-.04.43-.2.44-.48,0,0-.02.02-.02.02.29-.03.44-.18.44-.47,0,0-.03.02-.03.02,1.75-1.39,3.51-2.4,5.99-2.16,3.26.31,5.07,2.11,4.71,5.37,0,0,0-.02,0-.02-.14.2-.27.41-.41.61.03.12-.01.2-.12.26-.12.15-.24.31-.37.46,0,0,0-.01,0-.01-.14.19-.27.38-.41.57-2.17,3.24-4.38,6.45-7.33,9.05Z"/>
      <path class="cls-10" d="m40.94,144.19c-2.41,0-4.82.07-7.23-.02-2.86-.11-4.09-1.93-3.97-5.62.1-3.09,1.29-4.34,4.22-4.33,4.45,0,8.91.05,13.36.06.91,0,1.73.12,2.38.84,1.06,1.18,1.33,6.92.41,8.25-.56.8-1.38.7-2.16.79-.14.02-.29.01-.44.01-2.19,0-4.38,0-6.57,0v.02Z"/>
      <path class="cls-13" d="m118.32,69.16c.36-3.26-1.45-5.06-4.71-5.37-2.48-.24-4.24.77-5.99,2.16,1.36-2.53,3.64-4.31,5.34-6.56,3.81-5.05,7.67-10.06,11.51-15.09.04-.06.07-.13.13-.18,1.08-.96,1.91-3.02,3.55-2.17,1.42.73.74,2.68.39,4.03-2.02,7.79-5.12,15.15-9.24,22.06-.25.42-.66.75-.99,1.13Z"/>
      <path class="cls-10" d="m41.03,160.31c-2.26,0-4.51.02-6.77,0-2.53-.02-3.74-1.04-4.2-3.48-.83-4.43.84-6.43,5.3-6.38,3.93.04,7.86.03,11.79.09,2.49.04,3.33.9,3.55,3.41.52,5.85-.03,6.46-5.74,6.4-1.31-.02-2.62,0-3.93,0v-.02Z"/>
      <path class="cls-15" d="m99.04,67c-.06-.83-.5-1.32-1.32-1.43-2.48-.35-3.61-1.95-4.05-4.26-.04-.2-.41-.33-.62-.49,1.91-1.76,3.78-3.56,5.74-5.26,5.45-4.75,10.17-10.19,14.82-15.68.22-.26.51-.46.93-.85.29,2.87-.85,5.17-1.81,7.44-3.11,7.37-7.52,13.93-12.82,19.9-.23.26-.58.42-.87.63Z"/>
      <path class="cls-15" d="m82.93,11.06c0-4.04,3.04-7.15,6.99-7.18,4.44-.04,7.84,3.26,7.89,7.65.04,3.6-3.49,6.97-7.34,7.01-4.16.04-7.55-3.32-7.54-7.48Z"/>
      <path class="cls-6" d="m42.56,24.44c4.12-.02,7.15,2.98,7.21,7.14.05,3.78-3.05,6.84-6.97,6.88-4.02.04-7.26-3.03-7.23-6.85.03-3.99,3.11-7.15,6.99-7.17Z"/>
      <path class="cls-6" d="m29.8,26.25c0,3.91-2.67,6.52-6.65,6.49-3.68-.03-6.83-3.13-6.75-6.66.08-3.52,3.34-6.74,6.81-6.74,3.92,0,6.59,2.8,6.59,6.91Z"/>
      <path class="cls-11" d="m93.74,41.54c-3.67,3-7.34,5.98-11,9-.88.72-1.18.53-1.29-.57-.13-1.25.52-2.61-.52-3.73-.17-.37-.17-.75.02-1.11.74-.61.51-1.46.51-2.22.02-3.83,0-7.65,0-11.48,4.5,2.88,9.2,5.51,12.28,10.12Z"/>
      <path class="cls-6" d="m34.76,68.25c0-5.68-.05-11.37.01-17.05.05-4.76,3.51-8.64,7.86-8.44,4.38.2,7.86,3.08,7.92,8.44.1,9.47.04,18.95.1,28.42,0,1.44-.48,2.31-1.8,2.87-3.95,1.68-7.9,3.37-11.8,5.17-1.73.8-2.33.48-2.31-1.48.07-5.98.03-11.95.03-17.93h-.01Zm1.16,10.06c-.28,2-.62,4-.43,6.04.23,2.34.81,2.67,2.89,1.73,3.01-1.38,6.01-2.78,9.06-4.08,1.41-.61,2.22-1.36,2.1-3.07-.16-2.38-.07-4.78-.08-7.18.01-7.07.05-14.14.02-21.21-.01-2.79-2.09-5.51-4.62-6.25-2.89-.85-5.96.31-7.74,2.63-1.55,2.02-1.55,4.39-1.57,6.64-.04,4.57-.1,9.14.23,13.73.26,3.63-.71,7.35.14,11.03Z"/>
      <path class="cls-1" d="m140.25,33.69c-1.44,2.88-4.93,4.3-8.33,3.39-3.91-1.05-6.34-4.35-6.05-8.21.26-3.41,2.46-6.11,5.46-6.71.12,3.54.31,7.21,3.58,9.35,1.54,1.01,2.64,3.79,5.34,2.19Z"/>
      <path class="cls-14" d="m28.48,79.65c.17,0,.34.02.51.03.1,2.98.18,5.96.31,8.94.06,1.31-.35,2.12-1.68,2.67-2.75,1.13-5.44,2.44-8.11,3.75-1.37.67-2.03.51-1.97-1.17.06-1.96.04-3.93.05-5.89.05-.04.16-.1.15-.13-.03-.11-.09-.22-.14-.33,0-.73,0-1.45,0-2.18.55-.48.3-1.13.39-1.71.32.24.44.59.39.96-.26,2.17.66,2.12,2.16,1.21,2.29-1.4,4.6-2.75,6.9-4.14.75-.45,1.13-1.11,1.05-2Z"/>
      <path class="cls-10" d="m20,160.44c-4.05-.06-5.45-1.45-5.38-5.32.07-3.73,1.49-5.08,5.26-5.01,3.81.07,5.48,1.83,5.46,5.76-.02,3.48-1.37,4.63-5.33,4.57Z"/>
      <path class="cls-10" d="m19.98,144.17c-3.68.03-5.46-1.69-5.47-5.28-.01-3.54,1.54-5.18,4.96-5.24,3.77-.07,5.81,1.96,5.83,5.79.02,2.99-1.91,4.7-5.32,4.73Z"/>
      <path class="cls-15" d="m140.25,33.69c-2.69,1.61-3.8-1.18-5.34-2.19-3.28-2.14-3.47-5.81-3.58-9.35,0,0,.02.04.02.04.62,0,1.29.24,1.8-.35.65,0,1.31-.01,1.96-.02,0,0-.03,0-.03,0,5.64.91,8.52,6.87,5.5,11.39-.12.16-.25.33-.37.49,0,0,.03-.02.03-.02Z"/>
      <path class="cls-3" d="m0,122.67c0-3.05,2.04-5.15,5.01-5.17,3.09-.02,5.06,2.07,5.03,5.35-.03,2.77-2.11,4.83-4.86,4.82C2.11,127.66,0,125.62,0,122.67Z"/>
      <path class="cls-4" d="m78.41,101.1c-2.57,1.75-5.68,2.03-8.5,3.1-4.53,1.71-9.21,3.05-13.81,4.57-.46.15-1.03.15-1.33.65-.43.06-.86.09-1.28.19-3.54.79-6.85,2.39-10.48,2.85,0-.1,0-.2-.04-.29,4.53-2.03,9.06-4.06,13.6-6.1.76.48,1.17.26,1.24-.63,0,0,0,0,0,0,1.8.28,3.09-.91,4.62-1.51,3.73-1.46,7.76-1.96,11.47-3.6,1.33-.59,3.06.2,4.53.76Z"/>
      <path class="cls-10" d="m40.71,166.64c2.04,0,4.08-.01,6.12,0,.58,0,1.19,0,1.73.16,1.77.51,2.52,3.07,2.07,6.79-.23,1.94-.93,3.39-3.19,3.39-4.52,0-9.04,0-13.56,0-1.62,0-2.57-.97-3.13-2.31-.86-2.04-.74-4.16.04-6.19.52-1.38,1.69-1.93,3.14-1.92,2.26.01,4.52,0,6.78,0v.06Zm-.2,1.05c-2.11,0-4.22-.03-6.33,0-1.64.03-2.55.92-2.63,2.56-.05,1.09-.06,2.19,0,3.27.1,1.53.96,2.44,2.5,2.46,4.22.05,8.45.09,12.66-.02,1.69-.04,2.91-.9,2.79-2.89-.05-.8,0-1.6-.01-2.4-.05-2.15-.88-2.96-3.09-2.99-1.97-.02-3.93,0-5.9,0Z"/>
      <path class="cls-15" d="m143.37,9.07c.04,1.85-1.6,3.6-3.39,3.6-1.8,0-3.48-1.67-3.49-3.49-.02-1.92,1.51-3.55,3.36-3.61,1.79-.05,3.48,1.63,3.52,3.49Z"/>
      <path class="cls-6" d="m.1,139.1c.03-2.93,1.76-4.64,4.66-4.6,2.67.04,4.69,2.11,4.65,4.77-.04,2.64-2.13,4.62-4.84,4.59-2.9-.04-4.5-1.74-4.47-4.76Zm4.68-3.42c-2.18,0-3.49,1.31-3.5,3.49-.01,2.2,1.33,3.6,3.43,3.56,2.09-.04,3.61-1.52,3.62-3.54,0-2.05-1.47-3.52-3.54-3.52Z"/>
      <path class="cls-10" d="m80.53,163.4c-.05-2.7,1.75-4.69,4.33-4.79,2.68-.1,4.95,2.04,5,4.72.04,2.43-2.07,4.61-4.55,4.69-2.64.09-4.73-1.94-4.78-4.63Zm4.6,3.42c2.24.01,3.78-1.39,3.8-3.47.02-2.08-1.52-3.54-3.73-3.54-2.4,0-3.7,1.21-3.7,3.47,0,2.29,1.26,3.52,3.64,3.54Z"/>
      <path class="cls-2" d="m42.75,127.53c1.9.2,3.6-.81,5.45-1.17.62-.12,1.25-.55,1.83-.02.29.26.24.69.05,1.02-.42.73-1.16.44-1.77.48-1.87.13-3.72-.24-5.57-.31Z"/>
      <path class="cls-9" d="m81.46,31.42c0,3.83.01,7.65,0,11.48,0,.77.23,1.61-.51,2.22-.12-5-.61-10.01.16-15,.11.03.22.05.33.07,0,.41.02.82.02,1.23Z"/>
      <path class="cls-11" d="m81.44,30.19c-.11-.02-.22-.04-.33-.07-.35-.96.06-1.68.73-2.32.03.82.35,1.7-.4,2.39Z"/>
      <path class="cls-2" d="m56.32,61.57c.86,1.22,1.15,2.42-.07,3.59-.25-1.2-.06-2.4.07-3.59Z"/>
      <path class="cls-11" d="m74.88,37.01c0-1.08,0-2.16,0-3.25.36,1.08.35,2.16,0,3.25Z"/>
      <path class="cls-1" d="m133.15,21.84c-.51.59-1.18.34-1.8.35.51-.59,1.11-.69,1.8-.35Z"/>
      <path class="cls-2" d="m57.8,105.45c-.07.89-.48,1.11-1.24.63.41-.21.83-.42,1.24-.63Z"/>
      <path class="cls-13" d="m56.57,7.37c.48.38.33.64-.15.84-.23-.33-.12-.6.15-.84Z"/>
      <path class="cls-2" d="m56.33,47.13c.85.64.84,1.28,0,1.92,0-.64,0-1.28,0-1.92Z"/>
      <path class="cls-11" d="m80.87,62.95c.2.02.4.05.6.07-.03.31-.24.55-.51.51-.37-.07-.27-.35-.1-.58Z"/>
      <path class="cls-2" d="m74.87,54.46c0-.3,0-.6,0-.9.27.3.27.6,0,.9Z"/>
      <path class="cls-15" d="m291.81,78.86c.12-.18.25-.37.37-.55.16.37-.12.45-.37.55Z"/>
      <path class="cls-1" d="m140.22,33.7c.12-.16.25-.33.37-.49.13.35-.09.45-.37.49Z"/>
      <path class="cls-15" d="m89.82,63.38c-.18.15-.36.3-.54.45.07-.29.17-.54.54-.45Z"/>
      <path class="cls-4" d="m122.6,129.69c.15-.18.3-.36.46-.54.02.32-.12.51-.46.54Z"/>
      <path class="cls-13" d="m105.95,67.71c-.04.36-.29.5-.59.59.07-.33.25-.53.59-.59Z"/>
      <polygon class="cls-1" points="135.09 21.83 135.12 21.83 135.14 21.63 135.09 21.83"/>
      <path class="cls-13" d="m104.22,69.47s0-.03,0-.03c0,0,0,.03,0,.03Z"/>
      <path class="cls-6" d="m17.59,87.51c.05.11.11.22.14.33,0,.03-.1.09-.15.13,0-.15,0-.31.01-.46Z"/>
      <path class="cls-13" d="m107.24,66.38c-.02.28-.17.44-.44.48.15-.16.3-.32.44-.48Z"/>
      <path class="cls-13" d="m107.65,65.93c0,.29-.15.45-.44.47.15-.16.29-.32.44-.47Z"/>
      <path class="cls-1" d="m52.12,86.23c-.21.11-.42.22-.63.33.21-.11.42-.22.63-.33Z"/>
      <path class="cls-15" d="m91.43,62.06s.02-.02.02-.02c0,0-.02.02-.02.02Z"/>
      <path class="cls-13" d="m106.82,66.83c-.15.16-.3.32-.45.47.15-.16.3-.32.45-.47Z"/>
      <polygon class="cls-13" points="105.1 68.57 105.04 68.64 105.01 68.55 105.1 68.57"/>
      <path class="cls-4" d="m124.52,126.29c.08-.21.16-.43.24-.64-.08.21-.16.43-.24.64Z"/>
      <path class="cls-1" d="m287.37,67.71c-.16.17-.31.35-.47.52.16-.17.31-.35.47-.52Z"/>
      <path class="cls-4" d="m122.36,130.05s-.06,0-.06,0c0,0,.06,0,.06,0Z"/>
      <path class="cls-1" d="m286.94,68.19c-.16.16-.32.32-.47.47.16-.16.32-.32.47-.47Z"/>
      <polygon class="cls-13" points="104.66 69.02 104.62 69.05 104.59 68.99 104.66 69.02"/>
      <path class="cls-1" d="m286.5,68.63c-.16.16-.33.32-.49.48.16-.16.33-.32.49-.48Z"/>
      <path class="cls-15" d="m282.94,72.96s.05-.06.05-.06c0,0-.05.06-.05.06Z"/>
      <path class="cls-15" d="m283.8,71.67s.05-.06.05-.06-.05.06-.05.06Z"/>
      <path class="cls-13" d="m117.04,71.03c.14-.19.27-.38.41-.57-.13.19-.27.38-.41.57Z"/>
      <path class="cls-15" d="m95.49,70.64c.08-.07.15-.14.22-.22,0,.14-.08.21-.22.22Z"/>
      <path class="cls-13" d="m117.44,70.47c.12-.15.24-.31.37-.46-.12.15-.24.31-.37.46Z"/>
      <path class="cls-13" d="m117.92,69.75c.14-.2.27-.41.41-.61-.14.2-.27.41-.41.61Z"/>
      <path class="cls-13" d="m106.39,67.28c-.15.16-.31.31-.46.47.15-.16.31-.31.46-.47Z"/>
      <path class="cls-3" d="m28.48,79.65c.08.89-.31,1.55-1.05,2-2.3,1.38-4.61,2.74-6.9,4.14-1.49.91-2.42.96-2.16-1.21.05-.38-.07-.72-.39-.96.55-6.89.34-13.79.42-20.69.02-2.01,1.37-2.89,3.16-2.03,1.39.67,2.62.02,3.8-.24,1.61-.35,2.14.33,2.48,1.6.11.42.16.86.17,1.29.16,5.37.31,10.74.46,16.11Z"/>
      <path class="cls-14" d="m42.99,112.47c3.63-.46,6.94-2.06,10.48-2.85.42-.09.86-.13,1.28-.19,1.08.73,1.76,1.87,2.8,2.68,1.35,1.06,1.01,3.4-.65,4.49-2.56,1.67-5.46,2.66-8.31,3.68-5.87,2.1-11.88,3.79-18.01,4.97-3.76.72-7.57,1.31-11.43,1.25-1.89-.03-3.24-1.23-3.39-2.95-.27-3.08,0-3.69,2.43-4.17,3.9-.77,7.86-1.29,11.75-2.1,4.2-.88,8.26-2.3,12.25-3.89.48-.19.7-.48.8-.93Z"/>
      <path class="cls-12" d="m74.03,148.06c0,9.26,0,18.53,0,27.79,0,3.41-2.23,7.14-4.74,7.96-4.29,1.4-8.05.52-10.44-2.66-1.2-1.6-1.47-3.59-1.47-5.59,0-12.18.13-24.36-.08-36.54-.07-3.92-.03-7.87-.34-11.8-.1-1.28.2-2.33,1.63-2.98,4.23-1.92,8.62-3.47,12.63-5.89,2.11-1.28,2.8-.76,2.8,1.69,0,9.34,0,18.67,0,28.01Z"/>
      <path class="cls-3" d="m35.92,78.31c-.85-3.68.12-7.4-.14-11.03-.33-4.59-.27-9.16-.23-13.73.02-2.25.03-4.61,1.57-6.64,1.78-2.33,4.85-3.49,7.74-2.63,2.53.74,4.61,3.46,4.62,6.25.03,7.07,0,14.14-.02,21.21-.53.21-1.11.34-1.59.63-3.82,2.31-7.96,3.95-11.94,5.93Z"/>
      <path class="cls-14" d="m35.92,78.31c3.98-1.98,8.12-3.63,11.94-5.93.48-.29,1.06-.43,1.59-.63.01,2.39-.08,4.79.08,7.18.12,1.71-.69,2.47-2.1,3.07-3.04,1.3-6.05,2.71-9.06,4.08-2.07.95-2.66.61-2.89-1.73-.2-2.03.15-4.03.43-6.04Z"/>
      <path class="cls-12" d="m40.51,167.69c1.97,0,3.93-.02,5.9,0,2.21.02,3.04.83,3.09,2.99.02.8-.03,1.6.01,2.4.11,1.99-1.11,2.85-2.79,2.89-4.22.11-8.44.07-12.66.02-1.53-.02-2.4-.94-2.5-2.46-.07-1.09-.06-2.18,0-3.27.08-1.64.99-2.53,2.63-2.56,2.11-.04,4.22,0,6.33,0Z"/>
      <path class="cls-14" d="m4.78,135.69c2.07,0,3.55,1.47,3.54,3.52,0,2.02-1.53,3.5-3.62,3.54-2.09.04-3.44-1.36-3.43-3.56.01-2.18,1.32-3.49,3.5-3.49Z"/>
      <path class="cls-7" d="m85.12,166.82c-2.38-.01-3.65-1.25-3.64-3.54,0-2.26,1.3-3.47,3.7-3.47,2.21,0,3.75,1.46,3.73,3.54-.02,2.08-1.55,3.48-3.8,3.47Z"/>
    </g>
  </g>
</svg>