<svg width="196" height="66" viewBox="0 0 196 66" fill="none" xmlns="http://www.w3.org/2000/svg">
<g clip-path="url(#clip0_3494_11919)">
<path d="M93.4956 36.188C93.4956 36.8566 93.3905 37.5469 93.5142 38.1938C93.9005 40.1996 92.7877 41.1747 91.2113 42.0104C84.4356 45.6104 76.408 42.3788 74.7729 35.3491C73.759 30.997 75.5549 26.3199 79.1437 23.9519C82.8622 21.4972 88.5004 21.6056 91.9717 24.1098C92.9454 24.8124 93.1401 25.3912 92.2004 26.2146C92.0088 26.3818 91.8511 26.5985 91.7213 26.8182C91.2144 27.6911 90.7785 27.7902 89.8636 27.1154C87.3907 25.2953 84.6613 24.9331 81.904 26.4901C79.1344 28.0502 78.0556 30.5822 78.3709 33.6529C78.6738 36.6182 80.2688 38.7076 83.1312 39.7229C84.4789 40.2027 85.8544 40.181 87.2392 39.8746C89.8543 39.2958 90.4972 38.3052 90.0707 35.6401C89.981 35.0705 89.7307 34.9901 89.2608 34.9994C88.2315 35.0179 87.1929 34.9158 86.1759 35.0334C84.9642 35.1727 84.9333 34.4917 85.0476 33.656C85.1527 32.8852 84.5067 31.7151 86.2037 31.808C88.2562 31.9194 90.321 31.8792 92.3766 31.808C93.2823 31.777 93.5296 32.0897 93.4801 32.9378C93.4214 34.0181 93.4647 35.1015 93.4647 36.1849H93.4894L93.4956 36.188Z" fill="#081225"/>
<path d="M64.6853 43.3816C61.8013 43.3383 59.2141 42.518 56.8988 40.7939C56.1539 40.2398 56.0086 39.7569 56.6825 39.0883C56.7535 39.0171 56.7999 38.9212 56.8586 38.8345C57.99 37.1723 57.9838 37.1816 59.6406 38.3392C61.5293 39.661 63.6189 40.2522 65.9155 39.89C67.0933 39.7043 68.1288 39.209 68.3297 37.8687C68.5368 36.482 67.6156 35.7453 66.5059 35.346C64.8182 34.7362 63.0625 34.3245 61.3624 33.7426C58.1507 32.6437 56.8246 30.8267 57.0719 27.9975C57.3254 25.1002 59.2264 23.0913 62.3082 22.562C65.3097 22.0451 68.1257 22.6115 70.7747 24.1159C71.5661 24.5647 71.8319 25.0259 71.1426 25.7596C71.0746 25.8338 71.0128 25.9267 70.9788 26.0196C70.4656 27.5208 69.7547 27.8551 68.274 26.9049C66.6605 25.871 64.7842 25.4005 62.809 25.8896C61.7147 26.162 60.9142 26.747 60.8276 27.948C60.7441 29.0933 61.452 29.7588 62.4102 30.1736C64.5833 31.1115 67.0005 31.3344 69.1241 32.4178C72.6139 34.1976 73.2538 38.8128 70.3791 41.4996C69.2045 42.5985 67.7609 43.0969 66.1999 43.2919C65.6899 43.3538 65.1737 43.3507 64.6791 43.3755L64.6853 43.3816Z" fill="#081326"/>
<path d="M114.498 22.5128C116.724 22.4323 118.758 23.0576 120.674 24.1564C121.484 24.6238 121.799 25.1408 121.101 25.9641C120.838 26.2737 120.622 26.6451 120.47 27.0228C120.183 27.7471 119.846 27.7842 119.209 27.354C117.914 26.478 116.446 26.0075 114.891 25.8094C114.053 25.701 113.246 25.8032 112.474 26.1313C111.664 26.478 111.117 27.0723 111.018 27.9731C110.919 28.8955 111.386 29.5517 112.121 30.0346C113.086 30.6661 114.198 30.9137 115.286 31.2108C116.625 31.5761 117.973 31.9259 119.218 32.5573C121.138 33.5324 122.143 35.0956 122.149 37.2623C122.155 39.5034 121.252 41.274 119.28 42.379C115.858 44.292 109.583 43.4067 106.789 40.6951C106.39 40.3082 106.23 39.9832 106.631 39.5251C106.767 39.3703 106.91 39.2093 106.996 39.0267C107.661 37.6028 108.353 37.284 109.775 38.4138C111.596 39.8594 113.824 40.367 116.189 39.9306C117.358 39.7139 118.223 39.1258 118.402 37.8907C118.578 36.668 117.787 35.9994 116.798 35.5289C115.49 34.9067 114.065 34.6405 112.687 34.235C108.322 32.9535 106.854 31.1396 107.321 27.614C107.738 24.4474 110.474 22.5035 114.504 22.5128H114.498Z" fill="#72C840"/>
<path d="M26.7122 52.2434C26.7122 55.54 26.7215 58.8335 26.7091 62.1301C26.7029 63.7397 26.1589 65.0738 24.5577 65.7176C22.261 66.6462 19.9582 65.2193 19.9087 62.6222C19.7974 56.7565 19.8685 50.8845 19.8438 45.0156C19.8438 44.3934 20.1282 44.0994 20.6444 43.861C22.3661 43.0593 24.094 42.2638 25.7818 41.3971C26.6442 40.9545 26.706 41.3414 26.7029 42.0533C26.6875 45.4521 26.6967 48.8508 26.6967 52.2465H26.7122V52.2434Z" fill="#0865CB"/>
<path d="M172.793 33.7023C174.283 32.3125 175.826 31.0867 177.102 29.6257C178.255 28.3009 179.486 27.6106 181.238 27.8892C181.736 27.9666 182.255 27.9016 183.096 27.9016C181.427 29.6536 180.008 31.3065 178.41 32.7613C177.405 33.6776 177.473 34.3121 178.231 35.3119C179.662 37.197 180.975 39.1719 182.311 41.1313C182.672 41.6637 183.173 42.1404 183.285 43.0257C182.113 43.0257 180.997 42.9947 179.884 43.038C179.22 43.0628 179.025 42.5799 178.747 42.1589C177.668 40.5246 176.574 38.9026 175.52 37.2527C175.099 36.5965 174.895 36.5222 174.172 37.0825C172.605 38.2928 172.571 39.8807 172.753 41.5244C172.973 43.4962 171.616 42.9297 170.592 43.0659C169.381 43.2269 169.152 42.7223 169.161 41.6049C169.205 35.5719 169.236 29.539 169.118 23.5092C169.081 21.6117 170.259 22.1782 171.229 22.0451C172.512 21.8686 172.83 22.4413 172.747 23.6206C172.506 27.0101 172.605 30.4026 172.793 33.7116V33.7023Z" fill="#76C743"/>
<path d="M142.977 27.7598C147.435 27.7753 150.859 31.1493 150.856 35.5231C150.85 40.0176 147.351 43.3513 142.674 43.3204C138.254 43.2894 135.011 39.9866 135.039 35.5447C135.07 30.9202 138.307 27.7443 142.977 27.7598Z" fill="#74C843"/>
<path d="M35.5502 34.7031C35.5502 40.3646 35.6028 45.6082 35.5224 50.8487C35.4915 52.8452 33.8377 54.2474 31.9769 54.1639C30.0728 54.0772 28.8333 52.7802 28.7498 50.7589C28.6076 47.4159 28.5612 44.0729 28.7034 40.7268C28.7251 40.2191 28.6323 39.6929 29.1856 39.3586C31.334 38.0585 33.3401 36.5542 35.5502 34.7062V34.7031Z" fill="#107DD1"/>
<path d="M190.251 27.7406C191.561 27.6818 192.81 27.9449 194.025 28.4092C195.836 29.0995 195.787 29.0747 194.965 30.8824C194.597 31.6872 194.294 31.8327 193.503 31.39C192.322 30.7338 191.014 30.4057 189.639 30.5388C188.86 30.6131 188.192 30.9319 188.075 31.7708C187.963 32.5818 188.579 32.9501 189.243 33.1854C190.6 33.6652 191.982 34.0799 193.317 34.6093C195.144 35.3367 196.01 36.7544 195.997 38.7137C195.982 40.6669 194.974 42.2023 193.11 42.8616C190.068 43.9357 187.191 43.2856 184.548 41.6668C183.181 40.831 184.739 40.1469 184.946 39.3978C185.15 38.6487 185.54 38.6549 186.18 39.079C187.568 40.0045 189.082 40.6453 190.813 40.4967C191.682 40.4224 192.47 40.1841 192.662 39.1873C192.86 38.1597 192.198 37.6737 191.364 37.3765C190.106 36.9277 188.813 36.5748 187.577 36.0765C185.45 35.219 184.43 33.5971 184.702 31.6779C185.011 29.4895 186.575 28.0315 188.869 27.8087C189.33 27.7653 189.793 27.7622 190.257 27.7406H190.251Z" fill="#77CA43"/>
<path d="M160.893 27.7538C162.47 27.6702 164.087 28.1252 165.44 29.2582C165.848 29.5987 166.921 30.032 166.04 30.7594C165.357 31.3228 165.082 33.1243 163.478 31.8397C162.05 30.6975 160.368 30.4406 158.705 31.329C156.986 32.2483 156.353 33.8177 156.39 35.7152C156.424 37.4981 157.082 38.9684 158.689 39.798C160.322 40.6399 161.972 40.4542 163.521 39.4606C164.482 38.8446 166.158 39.4699 166.43 40.5564C166.578 41.1476 166.046 41.3395 165.728 41.6181C163.249 43.7725 159.064 44.0139 156.204 42.1876C153.28 40.3211 152.003 36.7057 153.048 33.2481C154.09 29.803 156.962 27.7414 160.897 27.7507L160.893 27.7538Z" fill="#74C843"/>
<path d="M125.922 35.5049C125.922 34.5794 125.919 33.6508 125.925 32.7253C125.935 31.7564 126.145 30.8278 124.537 30.8587C123.527 30.8773 124.074 29.732 123.975 29.1129C123.897 28.6331 123.833 27.9584 124.646 28.0512C125.848 28.1905 126.033 27.5436 125.919 26.584C125.901 26.4323 125.919 26.2745 125.919 26.1197C125.931 23.6929 126.479 23.2719 128.902 23.7455C129.335 23.8291 129.548 23.987 129.542 24.4234C129.539 24.6803 129.545 24.9372 129.548 25.1973C129.57 27.9491 129.57 28.0203 132.358 28.0048C133.44 27.9986 133.412 28.5527 133.325 29.2367C133.239 29.9239 133.817 30.9268 132.336 30.9764C129.514 31.0661 129.514 31.1311 129.511 33.9325C129.511 35.3749 129.489 36.8174 129.539 38.2567C129.594 39.823 130.531 40.4854 131.993 40.1232C132.379 40.0273 133.075 39.2658 133.149 40.1325C133.22 40.9559 134.169 42.0331 132.948 42.7327C129.514 44.6951 125.999 42.6955 125.916 38.7551C125.894 37.6748 125.913 36.5914 125.916 35.5111L125.922 35.5049Z" fill="#75C642"/>
<path d="M22.6644 34.0488C16.7666 37.8871 10.4206 40.3232 3.2771 40.252C2.83507 40.2489 2.22304 40.4439 2.00357 39.9889C1.73465 39.4317 2.35286 39.0974 2.67125 38.7322C3.91077 37.3207 5.37595 36.1723 7.09769 35.4325C10.9214 33.7888 14.7729 32.2102 18.6151 30.6068C20.7758 30.4056 22.9674 32.269 22.6644 34.0519V34.0488Z" fill="#3FA64D"/>
<path d="M26.5623 18.4928C26.6117 19.991 26.6303 21.4923 26.7199 22.9873C26.7663 23.7488 26.485 24.2069 25.8389 24.6031C24.2223 25.5968 22.6149 26.6058 20.9087 27.4447C20.207 27.7883 19.8082 27.8595 19.8206 26.8318C19.8762 21.387 19.8886 15.9391 19.9133 10.4943C20.5965 10.0702 21.0756 10.55 21.5485 10.906C22.9735 11.977 24.2501 13.2399 25.774 14.1809C26.3613 14.5431 26.5314 15.0662 26.5159 15.7379C26.4974 16.6542 26.4324 17.5735 26.5623 18.4866V18.4928Z" fill="#41B892"/>
<path d="M22.6665 34.0485C22.1781 31.8849 20.4595 31.1698 18.6172 30.6034C22.0174 28.6997 25.498 26.9508 28.7312 24.7438C33.1268 21.7413 37.0154 18.2063 40.4527 14.0059C40.805 14.8261 40.4218 15.4112 40.2023 15.9962C38.7031 19.9985 36.0169 23.1558 33.0062 26.081C29.8657 29.1331 26.5613 31.9746 22.6665 34.0454V34.0485Z" fill="#6ECA3E"/>
<path d="M26.5613 18.4919C27.0002 15.5699 25.1951 13.9757 23.0467 12.6168C21.9803 11.942 21.2725 10.7318 19.9124 10.4965C19.8876 8.18115 19.8227 5.86579 19.8506 3.55044C19.8753 1.4889 21.3003 0.00621043 23.1395 1.96406e-05C25.09 -0.00617115 26.654 1.45176 26.6633 3.52258C26.685 8.51235 26.6015 13.5021 26.5644 18.4919H26.5613Z" fill="#68CD73"/>
<path d="M31.0309 35.9382C23.8719 41.1446 16.0577 44.6672 7.10276 45.2336C6.1507 45.2924 5.16464 45.2367 5.07191 43.9212C4.99772 42.8625 5.35011 42.1537 6.55873 42.0051C9.99293 41.5842 13.2942 40.6524 16.4873 39.3183C19.3435 38.6559 22.0575 37.5539 24.8147 36.6006C25.7853 36.2663 26.7528 35.9072 27.7111 35.5296C28.861 35.3067 30.0788 34.5452 31.0309 35.9382Z" fill="#3FBDEE"/>
<path d="M12.3909 23.9653C12.3909 22.0059 12.3785 20.0497 12.394 18.0903C12.4063 16.5271 13.3893 15.3539 14.7958 15.1806C16.1651 15.0135 17.8343 16.134 17.8899 17.6043C18.026 21.1547 17.9456 24.7113 17.9518 28.2679C17.9518 28.8065 17.6087 29.1161 17.1697 29.3173C15.9055 29.8899 14.6319 30.4378 13.3677 31.0104C12.6134 31.3509 12.3631 31.0909 12.3754 30.3047C12.4002 28.1936 12.3847 26.0795 12.3847 23.9653C12.3847 23.9653 12.3909 23.9653 12.394 23.9653H12.3909Z" fill="#53C4E8"/>
<path d="M31.0266 35.9375C29.8891 35.142 28.733 35.7642 27.5863 35.888C26.764 36.0954 25.9109 36.117 25.0887 36.3399C24.4859 36.504 23.88 36.4513 23.4844 35.8384C29.1874 32.0497 34.4052 27.6976 38.9275 22.5375C40.0217 21.9587 40.9089 22.5159 41.7775 23.0854C42.2659 23.4043 42.4544 23.8438 42.0927 24.3948C39.0542 28.8676 35.5829 32.9226 31.0266 35.9375Z" fill="#37AD96"/>
<path d="M6.22128 24.0015C6.22128 21.1661 6.20892 18.3307 6.22747 15.4985C6.23674 14.0343 6.95696 13.2512 8.18722 13.276C9.45766 13.3007 10.2304 14.0653 10.2428 15.4582C10.2923 20.6647 10.2768 25.868 10.3603 31.0745C10.3757 32.0743 9.85332 32.3931 9.11764 32.7429C6.15637 34.1513 6.17183 34.1637 6.19037 30.9599C6.20274 28.6415 6.19037 26.32 6.19037 24.0015H6.22128Z" fill="#51C3E9"/>
<path d="M44.3199 44.3199C43.8346 46.2514 42.4034 47.4122 40.7466 47.2141C38.895 46.9943 37.7297 45.6107 37.6895 43.5554C37.637 40.8252 37.6957 38.0889 37.5164 35.3649C37.3897 33.421 37.9894 31.9662 39.5658 30.8828C41.1392 31.3162 41.6739 32.7772 40.7621 34.1485C39.3649 36.2471 39.3463 36.2657 41.1206 38.1879C42.1129 39.262 42.8702 40.5157 44.1066 41.435C44.8918 42.02 44.4157 43.3263 44.3199 44.3199Z" fill="#107ACD"/>
<path d="M44.3204 44.3189C44.1504 43.1489 44.5398 42.0067 43.0314 41.0688C41.7486 40.2701 40.9665 38.5863 39.8259 37.4069C38.8708 36.4195 38.9264 35.494 39.9156 34.4941C41.3251 33.0672 41.1984 32.185 39.5663 30.8849C41.0902 28.715 42.8243 26.6999 44.1009 24.4062C44.5769 24.592 44.5306 24.8706 44.5306 25.1151C44.5429 31.1264 44.5522 37.1376 44.5553 43.1458C44.5553 43.5482 44.6264 43.9753 44.3173 44.3189H44.3204Z" fill="#1F93D1"/>
<path d="M28.7773 10.7534C29.21 8.76923 30.3939 7.84989 32.3259 7.99538C33.9332 8.1161 35.3026 9.57093 35.3737 11.2734C35.4015 11.9327 35.3397 12.5982 35.318 13.2575C34.9409 13.8859 34.4371 14.3409 33.686 14.4678C32.9688 14.4926 32.4402 14.0933 31.9178 13.6754C31.0863 13.0068 30.2703 12.3104 29.3059 11.8244C28.87 11.6046 28.5146 11.3229 28.7773 10.7472V10.7534Z" fill="#6DC73E"/>
<path d="M14.3543 63.0039C13.7887 63.0039 13.2261 63.0132 12.6604 63.0039C11.0963 62.9729 10.6141 62.4777 10.6172 60.9919C10.6172 59.5711 11.3869 59.1161 12.6913 59.1749C13.971 59.2337 15.2569 59.2244 16.5397 59.2244C17.7205 59.2244 17.9771 59.9549 18.0018 60.9485C18.0235 61.9515 17.94 62.8615 16.6634 62.9482C15.8968 62.9977 15.124 62.9575 14.3543 62.9575C14.3543 62.9729 14.3543 62.9915 14.3543 63.007V63.0039Z" fill="#116DCC"/>
<path d="M100.226 36.1689C99.611 36.1689 98.9959 36.1751 98.3808 36.1689C96.1799 36.141 96.5292 36.5558 96.4334 34.2188C96.3901 33.1416 96.7178 32.7949 97.7966 32.8444C99.6389 32.928 101.49 32.928 103.333 32.863C105.03 32.8011 104.31 34.0392 104.439 34.7945C104.582 35.6365 104.486 36.302 103.302 36.1812C102.288 36.0791 101.252 36.1596 100.226 36.1596V36.1689Z" fill="#121C2B"/>
<path d="M33.7555 14.2224C34.2749 13.9005 34.7972 13.5817 35.3165 13.2598C35.8668 15.8939 35.1094 17.9493 32.7849 19.4444C31.4929 20.2739 30.3275 21.3047 29.1035 22.2426C28.5842 22.3324 28.6954 21.9331 28.6738 21.6638C28.4018 18.2743 28.4852 18.0979 31.2209 15.9218C32.0214 15.2842 32.7788 14.5908 33.7555 14.2224Z" fill="#40A74D"/>
<path d="M14.3357 51.3027C13.7206 51.3027 13.1055 51.2842 12.4903 51.3058C11.1797 51.3523 10.4657 50.8229 10.4688 49.4207C10.4719 48.0588 11.1952 47.6409 12.4285 47.678C13.7608 47.7214 15.0961 47.7276 16.4284 47.6842C17.977 47.6347 17.9307 48.6809 17.9925 49.755C18.0574 50.8756 17.6246 51.3863 16.4871 51.3213C15.77 51.2811 15.0529 51.3151 14.3326 51.3151V51.2996L14.3357 51.3027Z" fill="#166EC8"/>
<path d="M50.3821 10.5991C50.2245 12.2706 48.8644 13.4407 47.2323 13.3076C45.6713 13.1807 44.4843 11.8094 44.6018 10.2741C44.7254 8.68925 46.1813 7.50681 47.8103 7.67396C49.3342 7.83183 50.515 9.17523 50.3821 10.5991Z" fill="#7CCF4C"/>
<path d="M14.2918 57.1226C13.6767 57.1226 13.0616 57.135 12.4464 57.1226C11.2224 57.0947 10.5516 56.5252 10.5392 55.2313C10.5269 53.9622 11.2316 53.4824 12.363 53.4608C13.7447 53.4329 15.1295 53.4391 16.5143 53.4546C17.8249 53.47 18.0382 54.2965 18.066 55.4232C18.0969 56.6335 17.5684 57.1195 16.4401 57.1226C15.723 57.1226 15.0059 57.1226 14.2887 57.1226H14.2918Z" fill="#1671CD"/>
<path d="M42.095 24.3939C41.6746 22.6914 40.2279 22.7409 38.9297 22.5366C40.7132 20.2151 42.4937 17.8874 44.2835 15.572C44.5586 15.216 44.8522 14.6836 45.3715 14.9096C45.965 15.1696 45.8105 15.7825 45.6683 16.2747C44.8429 19.141 43.8971 21.9578 42.095 24.3939Z" fill="#5FC982"/>
<path d="M32.1005 6.53057C30.5272 6.53057 29.436 5.48742 29.4144 3.96758C29.3927 2.50346 30.5581 1.30864 32.0263 1.29316C33.4946 1.27459 34.7836 2.59323 34.7465 4.07283C34.7094 5.45028 33.5471 6.53367 32.1005 6.53367V6.53057Z" fill="#7FCF50"/>
<path d="M33.7577 14.2238C32.4193 15.4094 31.1921 16.7683 29.7053 17.7124C28.778 18.3005 28.7965 18.935 28.8491 19.7058C28.9078 20.5508 28.5276 21.4516 29.1056 22.244C28.8862 22.4731 28.5678 22.5164 28.574 22.1666C28.6512 18.3624 28.2865 14.5489 28.778 10.7539C30.3977 11.9642 31.8629 13.4005 33.7546 14.2238H33.7577Z" fill="#63C96B"/>
<path d="M17.6966 11.2419C17.6688 12.5946 16.4571 13.678 15.0074 13.647C13.6195 13.6161 12.516 12.5234 12.5314 11.1986C12.5469 9.81184 13.7555 8.63559 15.1248 8.67273C16.4973 8.70988 17.7244 9.93565 17.6966 11.245V11.2419Z" fill="#5DC6E6"/>
<path d="M10.5772 9.37206C10.5556 10.6257 9.55713 11.6688 8.36088 11.6874C6.96061 11.706 5.65308 10.4988 5.69636 9.22657C5.73963 8.0008 7.02553 6.7874 8.26506 6.80288C9.58804 6.81836 10.5988 7.94508 10.5772 9.37206Z" fill="#61C7E8"/>
<path d="M7.0176 53.3359C8.33131 53.3421 9.02372 54.116 8.9959 55.5058C8.97117 56.8275 8.10566 57.103 7.03924 57.103C5.68225 57.103 5.00839 56.4251 5.04857 55.156C5.08876 53.8838 5.79043 53.3297 7.01451 53.339L7.0176 53.3359Z" fill="#136AC5"/>
<path d="M8.98425 49.7205C8.93789 50.7915 8.17439 51.262 7.05541 51.2589C5.87461 51.2527 5.07402 50.7451 5.04002 49.4357C5.00911 48.2285 5.72933 47.5073 6.93795 47.5197C8.17439 47.5321 8.98116 48.3307 8.98116 49.7205H8.98425Z" fill="#1E73CC"/>
<path d="M23.4857 35.842C24.8458 36.4394 26.2275 35.2972 27.5876 35.8884C24.3388 37.433 20.8521 38.3245 17.4766 39.51C17.1335 39.6307 16.7626 39.6524 16.4844 39.3181C18.8181 38.1573 21.1519 36.9996 23.4857 35.8389V35.842Z" fill="#22A5C8"/>
<path d="M0.00239401 43.6242C0.0209406 42.3148 0.716436 41.7886 1.77977 41.801C2.98839 41.8134 3.52933 42.5718 3.48296 43.7294C3.43969 44.8438 2.7751 45.4598 1.69013 45.4195C0.521698 45.3793 -0.0810655 44.6952 -0.000697079 43.6273L0.00239401 43.6242Z" fill="#53C8ED"/>
<path d="M30.1543 56.3555C31.1094 56.4638 31.8142 56.9591 31.8884 57.9527C31.9719 59.0577 31.2702 59.6799 30.213 59.7109C29.2084 59.7387 28.5562 59.1537 28.5469 58.1167C28.5407 57.1077 29.1404 56.535 30.1543 56.3586V56.3555Z" fill="#1C7BDA"/>
<path d="M3.25526 49.4767C3.19344 50.5292 2.6525 51.0863 1.59844 51.1018C0.609286 51.1173 0.0652539 50.6251 0.0188875 49.6222C-0.03057 48.5605 0.482551 47.9445 1.5397 47.9043C2.58759 47.864 3.13471 48.4583 3.25526 49.4798V49.4767Z" fill="#3DC0F1"/>
<path d="M50.8667 3.26917C50.7987 4.06469 50.3783 4.55995 49.5932 4.49805C48.8513 4.44233 48.3444 3.93159 48.4124 3.15774C48.4773 2.43032 48.9626 1.89791 49.7323 1.91649C50.5359 1.93815 50.8512 2.51699 50.8698 3.26608L50.8667 3.26917Z" fill="#82D055"/>
<path d="M15.9599 45.4862C15.9043 45.3996 15.8857 45.3686 15.8672 45.3376C16.4576 45.1179 17.0016 44.6319 17.694 44.9971C17.7528 45.0281 17.8022 45.2293 17.7713 45.2603C17.2056 45.7896 16.5534 45.4677 15.963 45.4893L15.9599 45.4862Z" fill="#5EBFD4"/>
<path d="M147.209 35.6364C147.218 38.3015 145.388 40.264 142.903 40.2547C140.458 40.2423 138.597 38.2551 138.563 35.6178C138.529 32.931 140.319 30.8756 142.724 30.8385C145.342 30.7983 147.196 32.7855 147.209 35.6364Z" fill="#FCFDFC"/>
</g>
<defs>
<clipPath id="clip0_3494_11919">
<rect width="196" height="66" fill="white"/>
</clipPath>
</defs>
</svg>
